<svg width="244" height="48" viewBox="0 0 244 48" fill="none" xmlns="http://www.w3.org/2000/svg">
<rect width="244" height="48" rx="3" fill="#1F5DD9"/>
<rect width="244" height="48" rx="3" fill="url(#paint0_linear)"/>
<rect width="244" height="48" rx="3" fill="url(#paint1_linear)"/>
<path d="M41.7926 18.6094H45.8707V30H47.8395V18.6094H51.924V16.9091H41.7926V18.6094ZM55.5307 30.2173C57.1543 30.2173 58.0684 29.3928 58.4327 28.6577H58.5094V30H60.3759V23.4801C60.3759 20.6229 58.1259 20.054 56.5662 20.054C54.7892 20.054 53.1529 20.7699 52.5137 22.5597L54.3098 22.9688C54.5911 22.272 55.307 21.6009 56.5918 21.6009C57.8255 21.6009 58.4583 22.2464 58.4583 23.3587V23.4034C58.4583 24.1001 57.7424 24.0874 55.9782 24.2919C54.1181 24.5092 52.2132 24.995 52.2132 27.2259C52.2132 29.1562 53.6642 30.2173 55.5307 30.2173ZM55.9462 28.6832C54.8659 28.6832 54.0861 28.1974 54.0861 27.2514C54.0861 26.2287 54.9938 25.8643 56.0996 25.7173C56.7196 25.6342 58.1898 25.468 58.4647 25.1932V26.4588C58.4647 27.6222 57.5378 28.6832 55.9462 28.6832ZM62.9215 30H64.8327V26.5163L65.7852 25.5639L69.1218 30H71.4677L67.2234 24.3942L71.1992 20.1818H68.9109L64.9989 24.3366H64.8327V16.9091H62.9215V30ZM76.7683 30.1982C78.9096 30.1982 80.4245 29.1435 80.8592 27.5455L79.0502 27.2195C78.7051 28.1463 77.8741 28.6193 76.7875 28.6193C75.1511 28.6193 74.0517 27.5582 74.0005 25.6662H80.9806V24.9886C80.9806 21.4411 78.8585 20.054 76.6341 20.054C73.8983 20.054 72.0957 22.1378 72.0957 25.1548C72.0957 28.2038 73.8727 30.1982 76.7683 30.1982ZM74.0069 24.2344C74.0836 22.8409 75.0936 21.6328 76.6468 21.6328C78.1298 21.6328 79.1014 22.7322 79.1078 24.2344H74.0069ZM92.0005 30.1982C94.7683 30.1982 96.5772 28.1719 96.5772 25.1357C96.5772 22.0803 94.7683 20.054 92.0005 20.054C89.2328 20.054 87.4238 22.0803 87.4238 25.1357C87.4238 28.1719 89.2328 30.1982 92.0005 30.1982ZM92.0069 28.5938C90.198 28.5938 89.3542 27.0149 89.3542 25.1293C89.3542 23.25 90.198 21.652 92.0069 21.652C93.8031 21.652 94.6468 23.25 94.6468 25.1293C94.6468 27.0149 93.8031 28.5938 92.0069 28.5938ZM104.93 25.9283C104.936 27.5966 103.696 28.3892 102.623 28.3892C101.44 28.3892 100.622 27.5327 100.622 26.1967V20.1818H98.7106V26.4268C98.7106 28.8622 100.047 30.1278 101.932 30.1278C103.409 30.1278 104.412 29.348 104.866 28.2997H104.968V30H106.848V20.1818H104.93V25.9283ZM109.416 30H111.327V24.0043C111.327 22.7195 112.318 21.7926 113.673 21.7926C114.069 21.7926 114.517 21.8629 114.67 21.9077V20.0795C114.478 20.054 114.101 20.0348 113.858 20.0348C112.708 20.0348 111.723 20.6868 111.365 21.7415H111.263V20.1818H109.416V30ZM128.445 22.5788C128.048 21.0511 126.853 20.054 124.731 20.054C122.513 20.054 120.941 21.2237 120.941 22.9624C120.941 24.3558 121.784 25.2827 123.625 25.6918L125.287 26.0561C126.233 26.267 126.674 26.6889 126.674 27.3026C126.674 28.0632 125.862 28.6577 124.61 28.6577C123.465 28.6577 122.73 28.1655 122.5 27.2003L120.653 27.4815C120.972 29.2202 122.417 30.1982 124.622 30.1982C126.994 30.1982 128.637 28.9389 128.637 27.1619C128.637 25.7749 127.754 24.9183 125.952 24.5028L124.392 24.1449C123.312 23.8892 122.845 23.5249 122.852 22.8601C122.845 22.1058 123.664 21.5689 124.75 21.5689C125.939 21.5689 126.489 22.2273 126.713 22.8857L128.445 22.5788ZM136.957 25.9283C136.964 27.5966 135.724 28.3892 134.65 28.3892C133.467 28.3892 132.649 27.5327 132.649 26.1967V20.1818H130.738V26.4268C130.738 28.8622 132.074 30.1278 133.96 30.1278C135.436 30.1278 136.44 29.348 136.893 28.2997H136.996V30H138.875V20.1818H136.957V25.9283ZM141.443 30H143.354V24.0043C143.354 22.7195 144.345 21.7926 145.7 21.7926C146.096 21.7926 146.544 21.8629 146.697 21.9077V20.0795C146.506 20.054 146.128 20.0348 145.885 20.0348C144.735 20.0348 143.751 20.6868 143.393 21.7415H143.29V20.1818H141.443V30ZM157.049 20.1818H154.997L152.517 27.7372H152.415L149.928 20.1818H147.877L151.443 30H153.489L157.049 20.1818ZM162.725 30.1982C164.867 30.1982 166.382 29.1435 166.816 27.5455L165.007 27.2195C164.662 28.1463 163.831 28.6193 162.744 28.6193C161.108 28.6193 160.009 27.5582 159.958 25.6662H166.938V24.9886C166.938 21.4411 164.816 20.054 162.591 20.054C159.855 20.054 158.053 22.1378 158.053 25.1548C158.053 28.2038 159.83 30.1982 162.725 30.1982ZM159.964 24.2344C160.041 22.8409 161.051 21.6328 162.604 21.6328C164.087 21.6328 165.058 22.7322 165.065 24.2344H159.964ZM170.214 33.6562C171.792 33.6562 172.796 32.8317 173.358 31.3104L177.417 20.201L175.353 20.1818L172.866 27.8011H172.764L170.278 20.1818H168.232L171.824 30.1278L171.588 30.7798C171.102 32.0518 170.418 32.1669 169.37 31.8793L168.91 33.4453C169.14 33.554 169.638 33.6562 170.214 33.6562Z" fill="white"/>
<path d="M189 24L203 24" stroke="white" stroke-width="1.5" stroke-linecap="round" stroke-linejoin="round"/>
<path d="M196 17L203 24L196 31" stroke="white" stroke-width="1.5" stroke-linecap="round" stroke-linejoin="round"/>
<defs>
<linearGradient id="paint0_linear" x1="244" y1="90" x2="49.1132" y2="34.2817" gradientUnits="userSpaceOnUse">
<stop stop-color="#DB46E6"/>
<stop offset="1" stop-color="white" stop-opacity="0"/>
</linearGradient>
<linearGradient id="paint1_linear" x1="0" y1="0" x2="98.2365" y2="21.0261" gradientUnits="userSpaceOnUse">
<stop stop-color="#5ED4E7"/>
<stop offset="1" stop-color="white" stop-opacity="0"/>
</linearGradient>
</defs>
</svg>
