<svg width="25" height="23" viewBox="0 0 25 23" fill="none" xmlns="http://www.w3.org/2000/svg">
<g filter="url(#filter0_f)">
<path d="M2.51705 20H9.97443C13.8949 20 15.983 17.9545 15.983 15.1761C15.983 12.5938 14.1335 11.0341 12.1477 10.9403V10.7699C13.9631 10.3608 15.3011 9.07386 15.3011 7.01989C15.3011 4.40341 13.358 2.54545 9.50568 2.54545H2.51705V20ZM6.20739 16.983V12.3466H9.30114C11.0739 12.3466 12.1733 13.3693 12.1733 14.8097C12.1733 16.1222 11.2784 16.983 9.21591 16.983H6.20739ZM6.20739 9.84943V5.52841H9.01136C10.6477 5.52841 11.5767 6.37216 11.5767 7.63352C11.5767 9.0142 10.4517 9.84943 8.94318 9.84943H6.20739ZM20.4382 20.2216C21.5291 20.2216 22.4751 19.3097 22.4837 18.1761C22.4751 17.0597 21.5291 16.1477 20.4382 16.1477C19.3132 16.1477 18.3842 17.0597 18.3928 18.1761C18.3842 19.3097 19.3132 20.2216 20.4382 20.2216Z" fill="#182636"/>
</g>
<defs>
<filter id="filter0_f" x="0.517029" y="0.545441" width="23.9666" height="21.6761" filterUnits="userSpaceOnUse" color-interpolation-filters="sRGB">
<feFlood flood-opacity="0" result="BackgroundImageFix"/>
<feBlend mode="normal" in="SourceGraphic" in2="BackgroundImageFix" result="shape"/>
<feGaussianBlur stdDeviation="1" result="effect1_foregroundBlur"/>
</filter>
</defs>
</svg>
