<svg width="381" height="73" viewBox="0 0 381 73" fill="none" xmlns="http://www.w3.org/2000/svg">
<g filter="url(#filter0_f)">
<path d="M8.68786 64H31.06C42.8214 64 49.0856 57.8636 49.0856 49.5284C49.0856 41.7812 43.5373 37.1023 37.5799 36.821V36.3097C43.0259 35.0824 47.0401 31.2216 47.0401 25.0597C47.0401 17.2102 41.2106 11.6364 29.6538 11.6364H8.68786V64ZM19.7589 54.9489V41.0398H29.0401C34.3583 41.0398 37.6566 44.108 37.6566 48.429C37.6566 52.3665 34.9719 54.9489 28.7844 54.9489H19.7589ZM19.7589 33.5483V20.5852H28.1708C33.0799 20.5852 35.8668 23.1165 35.8668 26.9006C35.8668 31.0426 32.4918 33.5483 27.9663 33.5483H19.7589ZM66.9769 11.6364H56.0849V64H66.9769V11.6364ZM100.887 47.2784C100.912 52.5455 97.3072 55.3068 93.3952 55.3068C89.2788 55.3068 86.6197 52.4176 86.5941 47.7898V24.7273H75.7021V49.733C75.7276 58.9119 81.0969 64.5114 88.9975 64.5114C94.9038 64.5114 99.1481 61.4688 100.912 56.8665H101.321V64H111.779V24.7273H100.887V47.2784ZM120.491 64H131.383V41.7812C131.383 36.9489 134.912 33.625 139.718 33.625C141.227 33.625 143.298 33.8807 144.321 34.2131V24.5483C143.349 24.3182 141.994 24.1648 140.895 24.1648C136.497 24.1648 132.892 26.7216 131.46 31.5795H131.051V24.7273H120.491V64ZM195.227 26.696H205.838C205.684 17.3636 198.014 10.9205 186.355 10.9205C174.875 10.9205 166.463 17.2614 166.514 26.7727C166.488 34.4943 171.934 38.9176 180.781 41.0398L186.483 42.4716C192.184 43.8523 195.355 45.4886 195.38 49.017C195.355 52.8523 191.724 55.4602 186.099 55.4602C180.346 55.4602 176.204 52.8011 175.846 47.5597H165.133C165.414 58.8864 173.52 64.7415 186.227 64.7415C199.011 64.7415 206.528 58.6307 206.554 49.0426C206.528 40.3239 199.957 35.696 190.855 33.6506L186.15 32.5256C181.599 31.4773 177.789 29.7898 177.866 26.0312C177.866 22.6562 180.858 20.1761 186.278 20.1761C191.571 20.1761 194.818 22.5795 195.227 26.696ZM231.54 64.767C243.455 64.767 250.87 56.6108 250.87 44.517C250.87 32.3466 243.455 24.2159 231.54 24.2159C219.625 24.2159 212.211 32.3466 212.211 44.517C212.211 56.6108 219.625 64.767 231.54 64.767ZM231.591 56.3295C226.094 56.3295 223.282 51.2926 223.282 44.4403C223.282 37.5881 226.094 32.5256 231.591 32.5256C236.986 32.5256 239.799 37.5881 239.799 44.4403C239.799 51.2926 236.986 56.3295 231.591 56.3295ZM275.696 64.767C286.154 64.767 292.725 58.6307 293.236 49.6051H282.958C282.319 53.7983 279.557 56.1506 275.824 56.1506C270.736 56.1506 267.438 51.8807 267.438 44.3636C267.438 36.9489 270.762 32.7045 275.824 32.7045C279.813 32.7045 282.37 35.3381 282.958 39.25H293.236C292.776 30.1733 285.898 24.2159 275.645 24.2159C263.73 24.2159 256.367 32.4744 256.367 44.517C256.367 56.4574 263.603 64.767 275.696 64.767ZM300.21 64H311.102V24.7273H300.21V64ZM305.681 19.6648C308.929 19.6648 311.588 17.1847 311.588 14.142C311.588 11.125 308.929 8.64488 305.681 8.64488C302.46 8.64488 299.801 11.125 299.801 14.142C299.801 17.1847 302.46 19.6648 305.681 19.6648ZM331.026 64.7415C336.83 64.7415 340.588 62.2102 342.506 58.554H342.813V64H353.142V37.5114C353.142 28.1534 345.216 24.2159 336.472 24.2159C327.063 24.2159 320.875 28.7159 319.367 35.875L329.441 36.6932C330.182 34.0852 332.509 32.1676 336.421 32.1676C340.128 32.1676 342.25 34.0341 342.25 37.2557V37.4091C342.25 39.9403 339.566 40.2727 332.739 40.9375C324.966 41.6534 317.986 44.2614 317.986 53.0312C317.986 60.804 323.534 64.7415 331.026 64.7415ZM334.145 57.2244C330.796 57.2244 328.392 55.6648 328.392 52.6733C328.392 49.6051 330.924 48.0966 334.759 47.5597C337.137 47.2273 341.023 46.6648 342.327 45.7955V49.9631C342.327 54.0795 338.926 57.2244 334.145 57.2244ZM372.485 11.6364H361.593V64H372.485V11.6364Z" fill="#182636"/>
</g>
<defs>
<filter id="filter0_f" x="0.687866" y="0.644897" width="379.797" height="72.1222" filterUnits="userSpaceOnUse" color-interpolation-filters="sRGB">
<feFlood flood-opacity="0" result="BackgroundImageFix"/>
<feBlend mode="normal" in="SourceGraphic" in2="BackgroundImageFix" result="shape"/>
<feGaussianBlur stdDeviation="4" result="effect1_foregroundBlur"/>
</filter>
</defs>
</svg>
